<svg width="377" height="262" viewBox="0 0 377 262" fill="none" xmlns="http://www.w3.org/2000/svg">
<rect x="58.1853" y="0.524902" width="260.969" height="260.969" rx="57.5549" fill="#0077FF"/>
<path d="M132.094 108.791C132.094 101.453 131.398 96.1051 130.007 92.7477C129.24 90.9251 127.513 89.1026 124.827 87.28C122.189 85.4095 120.87 83.8507 120.87 82.6037C120.87 81.1168 124.851 80.3734 132.813 80.3734C133.58 80.3734 134.923 80.3254 136.842 80.2295C138.808 80.0856 140.343 79.9897 141.446 79.9417L144.971 79.7259C147.322 79.582 149.096 79.5101 150.295 79.5101H152.094C155.259 79.5101 156.842 80.4933 156.842 82.4598C156.842 83.0833 155.955 84.2584 154.18 85.985C152.406 87.6637 151.159 89.4623 150.439 91.3808C149.768 93.2513 149.432 97.9516 149.432 105.482L149.288 109.151L149.216 114.619V120.23C149.12 122.724 149.072 124.739 149.072 126.273V131.381L149 135.122V147.065C149 153.78 148.593 159.991 147.777 165.698C145.907 178.696 139.911 187.905 129.791 193.325C125.523 195.627 121.278 196.778 117.057 196.778C109.335 196.778 105.474 194.86 105.474 191.023C105.474 188.768 106.266 186.898 107.849 185.411C109.431 183.924 111.901 183.181 115.259 183.181L119.503 183.469C121.47 183.469 123.221 182.725 124.755 181.238C126.29 179.799 127.873 176.634 129.504 171.742C131.134 166.802 131.95 158.504 131.95 146.849L132.237 136.058V114.187L132.165 112.388C132.118 111.189 132.094 109.99 132.094 108.791ZM214.886 97.496V124.763C214.886 128.12 215.342 130.302 216.253 131.309C217.164 132.269 219.395 132.748 222.944 132.748H226.325C232.656 132.748 237.764 130.806 241.649 126.921C245.582 122.988 247.549 117.616 247.549 110.806V108.431C247.549 101.477 245.462 96.0811 241.29 92.2441C237.117 88.4071 231.409 86.4886 224.167 86.4886H223.519C219.395 86.4886 216.925 87.0402 216.109 88.1433C215.294 89.2465 214.886 92.364 214.886 97.496ZM222.081 78.8626H229.779C246.757 78.8626 257.741 83.9706 262.729 94.1866C264.599 98.0236 265.535 102.268 265.535 106.921V108.935C265.535 108.935 265.535 108.983 265.535 109.079C265.535 118.192 261.53 125.554 253.52 131.166C247.812 135.146 238.987 137.593 227.045 138.504C221.961 138.888 218.891 139.679 217.836 140.878C216.157 142.748 215.318 147.257 215.318 154.403C215.318 161.502 216.061 166.106 217.548 168.217C218.268 169.224 219.874 170.495 222.368 172.03C224.91 173.516 226.181 174.667 226.181 175.483C226.181 178.025 223.088 179.296 216.901 179.296H198.699C191.744 179.296 188.267 178.145 188.267 175.843C188.267 174.404 189.538 172.917 192.08 171.382C194.622 169.847 196.253 168.241 196.972 166.562C197.692 164.835 198.051 160.423 198.051 153.324L198.123 151.526C198.171 150.279 198.195 149.032 198.195 147.785C198.195 146.538 198.195 145.291 198.195 144.043L198.267 140.302V130.95L198.195 127.209C198.195 108.935 197.812 97.9996 197.044 94.4024C196.325 90.7573 194.742 88.2392 192.296 86.8483C189.898 85.4574 188.699 84.1624 188.699 82.9634C188.699 81.7164 189.37 80.8051 190.713 80.2295C192.056 79.654 196.133 79.3662 202.944 79.3662L210.57 79.2223L216.253 79.0065C218.795 78.9106 220.738 78.8626 222.081 78.8626Z" fill="white"/>
</svg>
