<svg width="262" height="263" viewBox="0 0 262 263" fill="none" xmlns="http://www.w3.org/2000/svg">
<rect x="0.328125" y="1.72693" width="260.969" height="260.969" rx="57.5549" fill="#6C6C6C"/>
<path d="M142.743 102.565C142.769 101.066 143.465 99.3693 144.832 97.4762C146.239 95.6255 148.172 94.7216 150.63 94.7645L152.317 94.7939C153.859 94.8208 155.491 95.5994 157.215 97.1297C158.979 98.7024 159.844 100.489 159.809 102.488L159.924 103.053L159.895 104.74C159.804 105.155 159.757 105.446 159.755 105.613C159.723 107.446 158.84 109.077 157.106 110.505C155.373 111.933 153.485 112.63 151.444 112.594L151.132 112.588C149.34 112.557 147.498 111.837 145.606 110.429C143.713 109.021 142.787 107.171 142.827 104.88L142.712 104.315L142.743 102.565ZM100.226 103.136L100.251 101.699C100.342 101.284 100.389 100.993 100.392 100.826C100.424 98.9514 101.328 97.3002 103.103 95.8727C104.879 94.4451 106.745 93.7484 108.703 93.7826L108.953 93.787C110.995 93.8226 112.918 94.6479 114.723 96.263C116.57 97.8788 117.473 99.9157 117.43 102.374L117.405 103.811C117.378 105.352 116.66 107.048 115.253 108.899C113.886 110.792 111.995 111.718 109.579 111.676L108.141 111.651C105.892 111.611 103.991 110.661 102.44 108.801C100.93 106.982 100.192 105.094 100.226 103.136ZM136.541 153.453C125.293 153.256 114.64 154.737 104.584 157.895C99.0533 159.591 93.3128 162.574 87.3624 166.846C84.325 168.96 82.3064 170.009 81.3066 169.991C79.5985 169.961 78.7623 168.926 78.7979 166.884C78.8328 164.885 81.1355 161.883 85.7061 157.878C94.8889 149.871 105.837 144.603 118.549 142.074C124.195 140.964 129.996 140.461 135.953 140.565L137.327 140.652L138.702 140.676C143.743 140.764 149.148 141.483 154.917 142.834C166.704 145.582 176.804 150.676 185.217 158.115C191.087 163.26 194.003 166.874 193.967 168.957L193.947 170.082C193.92 171.665 193.239 172.445 191.906 172.422L190.906 172.404C190.281 172.393 188.715 171.387 186.208 169.384C173.344 159.117 156.788 153.806 136.541 153.453Z" fill="#4E4E4E"/>
</svg>
