<svg width="899" height="457" viewBox="0 0 899 457" fill="none" xmlns="http://www.w3.org/2000/svg">
<rect x="0.334961" y="0.743286" width="897.873" height="455.957" fill="#7E7E7E"/>
<rect x="389.591" y="169.042" width="119.36" height="119.36" rx="26.324" fill="#5F5F5F"/>
<path d="M423.395 218.442C423.395 215.086 423.077 212.64 422.441 211.104C422.09 210.271 421.3 209.437 420.071 208.604C418.865 207.748 418.262 207.035 418.262 206.465C418.262 205.785 420.082 205.445 423.724 205.445C424.075 205.445 424.689 205.423 425.567 205.379C426.466 205.313 427.168 205.269 427.673 205.247L429.285 205.149C430.36 205.083 431.171 205.05 431.72 205.05H432.542C433.99 205.05 434.714 205.5 434.714 206.399C434.714 206.684 434.308 207.222 433.497 208.011C432.685 208.779 432.115 209.602 431.786 210.479C431.479 211.335 431.325 213.485 431.325 216.929L431.259 218.607L431.226 221.108V223.674C431.182 224.815 431.16 225.736 431.16 226.438V228.774L431.128 230.486V235.948C431.128 239.019 430.941 241.86 430.568 244.47C429.713 250.415 426.971 254.627 422.342 257.106C420.39 258.159 418.448 258.685 416.518 258.685C412.986 258.685 411.22 257.808 411.22 256.053C411.22 255.022 411.582 254.166 412.306 253.486C413.03 252.806 414.16 252.466 415.695 252.466L417.636 252.598C418.536 252.598 419.337 252.258 420.039 251.578C420.741 250.919 421.464 249.472 422.21 247.234C422.956 244.975 423.329 241.18 423.329 235.849L423.461 230.913V220.91L423.428 220.088C423.406 219.539 423.395 218.991 423.395 218.442ZM461.262 213.276V225.747C461.262 227.283 461.47 228.281 461.887 228.742C462.304 229.18 463.324 229.4 464.947 229.4H466.494C469.389 229.4 471.726 228.511 473.503 226.734C475.301 224.936 476.201 222.479 476.201 219.364V218.278C476.201 215.097 475.247 212.629 473.338 210.874C471.43 209.119 468.819 208.242 465.507 208.242H465.211C463.324 208.242 462.194 208.494 461.821 208.999C461.448 209.503 461.262 210.929 461.262 213.276ZM464.552 204.754H468.073C475.839 204.754 480.862 207.09 483.144 211.763C483.999 213.517 484.427 215.459 484.427 217.587V218.508C484.427 218.508 484.427 218.53 484.427 218.574C484.427 222.742 482.595 226.109 478.932 228.676C476.321 230.496 472.285 231.615 466.823 232.032C464.498 232.208 463.094 232.569 462.611 233.118C461.843 233.973 461.459 236.035 461.459 239.304C461.459 242.551 461.799 244.657 462.479 245.622C462.808 246.082 463.543 246.664 464.684 247.366C465.847 248.046 466.428 248.572 466.428 248.945C466.428 250.108 465.013 250.689 462.183 250.689H453.858C450.677 250.689 449.087 250.163 449.087 249.11C449.087 248.452 449.668 247.772 450.831 247.07C451.994 246.368 452.74 245.633 453.069 244.865C453.398 244.075 453.562 242.057 453.562 238.81L453.595 237.988C453.617 237.417 453.628 236.847 453.628 236.277C453.628 235.706 453.628 235.136 453.628 234.566L453.661 232.855V228.577L453.628 226.866C453.628 218.508 453.452 213.507 453.101 211.861C452.772 210.194 452.049 209.042 450.93 208.406C449.833 207.77 449.284 207.178 449.284 206.629C449.284 206.059 449.592 205.642 450.206 205.379C450.82 205.116 452.685 204.984 455.8 204.984L459.288 204.918L461.887 204.82C463.05 204.776 463.938 204.754 464.552 204.754Z" fill="#A9A9A9"/>
</svg>
